<svg width="80" height="80" viewBox="0 0 80 80" fill="none" xmlns="http://www.w3.org/2000/svg">
<rect width="80" height="80" rx="13" fill="#4686FF"/>
<path d="M57.5007 45.9491V53.8432H64.9995V59.1059H57.4982L57.5007 67H52.5015L52.499 59.1059H45.0027V53.8432H52.5015V45.9491H57.5007ZM60.6077 21.6273C63.3149 24.4775 64.8842 28.3097 64.9938 32.3386C65.1035 36.3675 63.7453 40.288 61.1976 43.2966L57.6482 39.5654C60.9752 35.5552 60.8002 29.2662 57.0683 25.3455C55.2616 23.4477 52.8341 22.3489 50.2828 22.274C47.7316 22.1992 45.2497 23.154 43.3454 24.9429L40.0085 28.0952L36.669 24.9455C34.7644 23.1526 32.28 22.1956 29.726 22.271C27.172 22.3463 24.7424 23.4484 22.9362 25.3507C21.1471 27.234 20.1028 29.7613 20.0137 32.423C19.9247 35.0848 20.7975 37.6832 22.4563 39.6943L43.5329 61.9188L40.0035 65.6448L18.8068 43.2993C16.2554 40.2889 14.8955 36.3645 15.0063 32.3317C15.1171 28.2989 16.6902 24.4638 19.4027 21.6137C22.1152 18.7636 25.7613 17.1148 29.5923 17.0058C33.4233 16.8967 37.1487 18.3357 40.0035 21.0274C42.8594 18.336 46.5862 16.8984 50.4178 17.01C54.2494 17.1216 57.8975 18.7739 60.6077 21.6273Z" fill="white"/>
</svg>
